<?xml version="1.0" encoding="UTF-8"?>
<!DOCTYPE svg PUBLIC "-//W3C//DTD SVG 1.1//EN" "http://www.w3.org/Graphics/SVG/1.1/DTD/svg11.dtd">
<!-- Creator: CorelDRAW X8 -->
<svg xmlns="http://www.w3.org/2000/svg" xml:space="preserve" width="717px" height="594px" version="1.1" style="shape-rendering:geometricPrecision; text-rendering:geometricPrecision; image-rendering:optimizeQuality; fill-rule:evenodd; clip-rule:evenodd"
viewBox="0 0 717 594"
 xmlns:xlink="http://www.w3.org/1999/xlink">
 <defs>
  <style type="text/css">
   <![CDATA[
    .fil0 {fill:white;fill-rule:nonzero}
    .fil2 {fill:url(#id0)}
    .fil1 {fill:url(#id1)}
   ]]>
  </style>
  <radialGradient id="id0" gradientUnits="userSpaceOnUse" gradientTransform="matrix(-1.06292 -0.0468963 0.0216286 -0.949187 812 594)" cx="396.565" cy="295.445" r="199.922" fx="396.565" fy="295.445">
   <stop offset="0" style="stop-opacity:1; stop-color:black"/>
   <stop offset="1" style="stop-opacity:1; stop-color:#000280"/>
  </radialGradient>
  <radialGradient id="id1" gradientUnits="userSpaceOnUse" gradientTransform="matrix(-0.997907 -0.00940897 -0.261736 -0.906243 852 604)" xlink:href="#id0" cx="385.316" cy="314.824" r="346.241" fx="385.316" fy="314.824">
  </radialGradient>
 </defs>
 <g id="Layer_x0020_1">
  <metadata id="CorelCorpID_0Corel-Layer"/>
  <g id="_2069239520112">
   <path class="fil0" d="M0 428l6 0 0 5 -6 0 0 -5zm12 0l5 0 0 5 -5 0 0 -5zm11 0l6 0 0 5 -6 0 0 -5zm11 0l6 0 0 5 -6 0 0 -5zm11 0l6 0 0 5 -6 0 0 -5zm11 0l6 0 0 5 -6 0 0 -5zm12 0l6 0 0 5 -6 0 0 -5zm11 0l6 0 0 5 -6 0 0 -5zm11 0l6 0 0 5 -6 0 0 -5zm11 0l6 0 0 5 -6 0 0 -5zm11 0l6 0 0 5 -6 0 0 -5zm12 0l6 0 0 5 -6 0 0 -5zm-124 -23l6 0 0 6 -6 0 0 -6zm12 0l5 0 0 6 -5 0 0 -6zm11 0l6 0 0 6 -6 0 0 -6zm11 0l6 0 0 6 -6 0 0 -6zm11 0l6 0 0 6 -6 0 0 -6zm11 0l6 0 0 6 -6 0 0 -6zm12 0l6 0 0 6 -6 0 0 -6zm11 0l6 0 0 6 -6 0 0 -6zm11 0l6 0 0 6 -6 0 0 -6zm11 0l6 0 0 6 -6 0 0 -6zm11 0l6 0 0 6 -6 0 0 -6zm12 0l6 0 0 6 -6 0 0 -6zm-124 -22l6 0 0 5 -6 0 0 -5zm12 0l5 0 0 5 -5 0 0 -5zm11 0l6 0 0 5 -6 0 0 -5zm11 0l6 0 0 5 -6 0 0 -5zm11 0l6 0 0 5 -6 0 0 -5zm11 0l6 0 0 5 -6 0 0 -5zm12 0l6 0 0 5 -6 0 0 -5zm11 0l6 0 0 5 -6 0 0 -5zm11 0l6 0 0 5 -6 0 0 -5zm11 0l6 0 0 5 -6 0 0 -5zm11 0l6 0 0 5 -6 0 0 -5zm12 0l6 0 0 5 -6 0 0 -5zm-124 -23l6 0 0 6 -6 0 0 -6zm12 0l5 0 0 6 -5 0 0 -6zm11 0l6 0 0 6 -6 0 0 -6zm11 0l6 0 0 6 -6 0 0 -6zm11 0l6 0 0 6 -6 0 0 -6zm11 0l6 0 0 6 -6 0 0 -6zm12 0l6 0 0 6 -6 0 0 -6zm11 0l6 0 0 6 -6 0 0 -6zm11 0l6 0 0 6 -6 0 0 -6zm11 0l6 0 0 6 -6 0 0 -6zm11 0l6 0 0 6 -6 0 0 -6zm12 0l6 0 0 6 -6 0 0 -6zm-124 -22l6 0 0 5 -6 0 0 -5zm12 0l5 0 0 5 -5 0 0 -5zm11 0l6 0 0 5 -6 0 0 -5zm11 0l6 0 0 5 -6 0 0 -5zm11 0l6 0 0 5 -6 0 0 -5zm11 0l6 0 0 5 -6 0 0 -5zm12 0l6 0 0 5 -6 0 0 -5zm11 0l6 0 0 5 -6 0 0 -5zm11 0l6 0 0 5 -6 0 0 -5zm11 0l6 0 0 5 -6 0 0 -5zm11 0l6 0 0 5 -6 0 0 -5zm12 0l6 0 0 5 -6 0 0 -5zm-124 -22l6 0 0 5 -6 0 0 -5zm12 0l5 0 0 5 -5 0 0 -5zm11 0l6 0 0 5 -6 0 0 -5zm11 0l6 0 0 5 -6 0 0 -5zm11 0l6 0 0 5 -6 0 0 -5zm11 0l6 0 0 5 -6 0 0 -5zm12 0l6 0 0 5 -6 0 0 -5zm11 0l6 0 0 5 -6 0 0 -5zm11 0l6 0 0 5 -6 0 0 -5zm11 0l6 0 0 5 -6 0 0 -5zm11 0l6 0 0 5 -6 0 0 -5zm12 0l6 0 0 5 -6 0 0 -5zm-124 -23l6 0 0 5 -6 0 0 -5zm12 0l5 0 0 5 -5 0 0 -5zm11 0l6 0 0 5 -6 0 0 -5zm11 0l6 0 0 5 -6 0 0 -5zm11 0l6 0 0 5 -6 0 0 -5zm11 0l6 0 0 5 -6 0 0 -5zm12 0l6 0 0 5 -6 0 0 -5zm11 0l6 0 0 5 -6 0 0 -5zm11 0l6 0 0 5 -6 0 0 -5zm11 0l6 0 0 5 -6 0 0 -5zm11 0l6 0 0 5 -6 0 0 -5zm12 0l6 0 0 5 -6 0 0 -5zm-123 146l6 0 0 5 -6 0 0 -5zm11 0l6 0 0 5 -6 0 0 -5zm11 0l6 0 0 5 -6 0 0 -5zm12 0l5 0 0 5 -5 0 0 -5zm11 0l6 0 0 5 -6 0 0 -5zm11 0l6 0 0 5 -6 0 0 -5zm11 0l6 0 0 5 -6 0 0 -5zm11 0l6 0 0 5 -6 0 0 -5zm12 0l6 0 0 5 -6 0 0 -5zm11 0l6 0 0 5 -6 0 0 -5zm11 0l6 0 0 5 -6 0 0 -5zm11 0l6 0 0 5 -6 0 0 -5zm-123 -23l6 0 0 6 -6 0 0 -6zm11 0l6 0 0 6 -6 0 0 -6zm11 0l6 0 0 6 -6 0 0 -6zm12 0l5 0 0 6 -5 0 0 -6zm11 0l6 0 0 6 -6 0 0 -6zm11 0l6 0 0 6 -6 0 0 -6zm11 0l6 0 0 6 -6 0 0 -6zm11 0l6 0 0 6 -6 0 0 -6zm12 0l6 0 0 6 -6 0 0 -6zm11 0l6 0 0 6 -6 0 0 -6zm11 0l6 0 0 6 -6 0 0 -6zm11 0l6 0 0 6 -6 0 0 -6zm-123 -22l6 0 0 5 -6 0 0 -5zm11 0l6 0 0 5 -6 0 0 -5zm11 0l6 0 0 5 -6 0 0 -5zm12 0l5 0 0 5 -5 0 0 -5zm11 0l6 0 0 5 -6 0 0 -5zm11 0l6 0 0 5 -6 0 0 -5zm11 0l6 0 0 5 -6 0 0 -5zm11 0l6 0 0 5 -6 0 0 -5zm12 0l6 0 0 5 -6 0 0 -5zm11 0l6 0 0 5 -6 0 0 -5zm11 0l6 0 0 5 -6 0 0 -5zm11 0l6 0 0 5 -6 0 0 -5zm-123 -22l6 0 0 5 -6 0 0 -5zm11 0l6 0 0 5 -6 0 0 -5zm11 0l6 0 0 5 -6 0 0 -5zm12 0l5 0 0 5 -5 0 0 -5zm11 0l6 0 0 5 -6 0 0 -5zm11 0l6 0 0 5 -6 0 0 -5zm11 0l6 0 0 5 -6 0 0 -5zm11 0l6 0 0 5 -6 0 0 -5zm12 0l6 0 0 5 -6 0 0 -5zm11 0l6 0 0 5 -6 0 0 -5zm11 0l6 0 0 5 -6 0 0 -5zm11 0l6 0 0 5 -6 0 0 -5zm-123 -23l6 0 0 5 -6 0 0 -5zm11 0l6 0 0 5 -6 0 0 -5zm11 0l6 0 0 5 -6 0 0 -5zm12 0l5 0 0 5 -5 0 0 -5zm11 0l6 0 0 5 -6 0 0 -5zm11 0l6 0 0 5 -6 0 0 -5zm11 0l6 0 0 5 -6 0 0 -5zm11 0l6 0 0 5 -6 0 0 -5zm12 0l6 0 0 5 -6 0 0 -5zm11 0l6 0 0 5 -6 0 0 -5zm11 0l6 0 0 5 -6 0 0 -5zm11 0l6 0 0 5 -6 0 0 -5zm-123 -22l6 0 0 5 -6 0 0 -5zm11 0l6 0 0 5 -6 0 0 -5zm11 0l6 0 0 5 -6 0 0 -5zm12 0l5 0 0 5 -5 0 0 -5zm11 0l6 0 0 5 -6 0 0 -5zm11 0l6 0 0 5 -6 0 0 -5zm11 0l6 0 0 5 -6 0 0 -5zm11 0l6 0 0 5 -6 0 0 -5zm12 0l6 0 0 5 -6 0 0 -5zm11 0l6 0 0 5 -6 0 0 -5zm11 0l6 0 0 5 -6 0 0 -5zm11 0l6 0 0 5 -6 0 0 -5zm-123 -23l6 0 0 6 -6 0 0 -6zm11 0l6 0 0 6 -6 0 0 -6zm11 0l6 0 0 6 -6 0 0 -6zm12 0l5 0 0 6 -5 0 0 -6zm11 0l6 0 0 6 -6 0 0 -6zm11 0l6 0 0 6 -6 0 0 -6zm11 0l6 0 0 6 -6 0 0 -6zm11 0l6 0 0 6 -6 0 0 -6zm12 0l6 0 0 6 -6 0 0 -6zm11 0l6 0 0 6 -6 0 0 -6zm11 0l6 0 0 6 -6 0 0 -6zm11 0l6 0 0 6 -6 0 0 -6zm-123 -22l6 0 0 5 -6 0 0 -5zm11 0l6 0 0 5 -6 0 0 -5zm11 0l6 0 0 5 -6 0 0 -5zm12 0l5 0 0 5 -5 0 0 -5zm11 0l6 0 0 5 -6 0 0 -5zm11 0l6 0 0 5 -6 0 0 -5zm11 0l6 0 0 5 -6 0 0 -5zm11 0l6 0 0 5 -6 0 0 -5zm12 0l6 0 0 5 -6 0 0 -5zm11 0l6 0 0 5 -6 0 0 -5zm11 0l6 0 0 5 -6 0 0 -5zm11 0l6 0 0 5 -6 0 0 -5z"/>
   <path class="fil1" d="M312 587c-81,-29 -34,-95 -62,-151 -27,-55 -68,-25 -132,-25 -56,0 -94,-77 -93,-123 4,-143 185,-103 231,-146 39,-36 -11,-107 59,-136 31,-13 58,-3 78,11 0,0 47,19 62,69 15,51 48,73 108,68 59,-6 97,-23 134,25 38,49 27,104 -55,124 -81,20 -7,103 33,130 41,26 69,132 -20,139 -89,6 -85,-85 -152,-86 -54,-2 -80,141 -191,101z"/>
   <path class="fil2" d="M321 406c-64,19 -108,-20 -118,-51 -10,-31 12,-68 60,-88 49,-20 -1,-107 43,-143 44,-36 61,-25 87,-17 112,35 22,128 82,165 60,36 131,20 125,104 -5,83 -119,64 -141,47 -30,-23 -93,-31 -138,-17z"/>
  </g>
 </g>
</svg>
